inDegrees=no
num_controls=7
num_derivatives=13
num_iterations=197
num_multipliers=7
num_parameters=0
num_slacks=7
num_states=26
objective=0.545107
objective_accelerations=0.042767
objective_balance=0.003997
objective_effort=0.041586
objective_height=0.447292
objective_ligament=0.009465
solver_duration=2101.395813
status=Solve_Succeeded
success=true
DataType=double
version=3
OpenSimVersion=4.5
endheader
time	/jointset/ground_pelvis/pelvis_tilt/value	/jointset/ground_pelvis/pelvis_tx/value	/jointset/ground_pelvis/pelvis_ty/value	/jointset/hip_r/hip_flexion_r/value	/jointset/hip_r/hip_adduction_r/value	/jointset/hip_r/hip_rotation_r/value	/jointset/back/lumbar_extension/value	/jointset/patellofemoral_r/patellar_flexion_r/value	/jointset/knee_r/knee_flexion_r/value	/jointset/knee_r/knee_adduction_r/value	/jointset/knee_r/knee_rotation_r/value	/jointset/ankle_r/ankle_angle_r/value	/jointset/subtalar_r/subtalar_angle_r/value	/jointset/ground_pelvis/pelvis_tilt/speed	/jointset/ground_pelvis/pelvis_tx/speed	/jointset/ground_pelvis/pelvis_ty/speed	/jointset/hip_r/hip_flexion_r/speed	/jointset/hip_r/hip_adduction_r/speed	/jointset/hip_r/hip_rotation_r/speed	/jointset/back/lumbar_extension/speed	/jointset/patellofemoral_r/patellar_flexion_r/speed	/jointset/knee_r/knee_flexion_r/speed	/jointset/knee_r/knee_adduction_r/speed	/jointset/knee_r/knee_rotation_r/speed	/jointset/ankle_r/ankle_angle_r/speed	/jointset/subtalar_r/subtalar_angle_r/speed	/forceset/tau_hip_flexion_r	/forceset/tau_hip_adduction_r	/forceset/tau_hip_rotation_r	/forceset/tau_knee_flexion_r	/forceset/tau_ankle_angle_r	/forceset/tau_subtalar_angle_r	/forceset/tau_lumbar_extension	lambda_cid13_p0	lambda_cid14_p0	lambda_cid14_p1	lambda_cid14_p2	lambda_cid14_p3	lambda_cid14_p4	lambda_cid14_p5	/jointset/ground_pelvis/pelvis_tilt/accel	/jointset/ground_pelvis/pelvis_tx/accel	/jointset/ground_pelvis/pelvis_ty/accel	/jointset/hip_r/hip_flexion_r/accel	/jointset/hip_r/hip_adduction_r/accel	/jointset/hip_r/hip_rotation_r/accel	/jointset/back/lumbar_extension/accel	/jointset/patellofemoral_r/patellar_flexion_r/accel	/jointset/knee_r/knee_flexion_r/accel	/jointset/knee_r/knee_adduction_r/accel	/jointset/knee_r/knee_rotation_r/accel	/jointset/ankle_r/ankle_angle_r/accel	/jointset/subtalar_r/subtalar_angle_r/accel	gamma_cid13_p0	gamma_cid14_p0	gamma_cid14_p1	gamma_cid14_p2	gamma_cid14_p3	gamma_cid14_p4	gamma_cid14_p5
0.5	-0.2335631702140212	-0.009910911641228662	0.8370366089585867	0.9280394626267936	-0.2279252772118823	-0.1317384672576469	-0.3401016552974058	0.697393531521135	0.697393531521124	0.036062720613275	0.1745160547195601	0.1707956146999977	0.03365175208117576	-0.6279791955197954	-0.2251699207940088	-0.4177288610734411	2.022033561547464	-5.129104944633064e-05	0.2674535378373501	-0.5887195882108559	1.673323150348932	1.673323150348975	-0.2800998840955168	-6.412543855878824e-05	0.3590939355493909	0.09050990929175647	-0.1620256597921174	-0.02769011483253792	0.009531624668989089	-0.3089674331495165	0.1206230498064953	-0.005207884811558832	0.1934572903638724	-31.47848857358668	-3.326172178810703	1.491315503870761	-4.72995895431232	-2.525110158363856	-667.0416361705834	63.38646986857171	0.3328588255994758	0.5522526958515178	-0.3463651708863983	-1.348295931726078	-0.02796302476050529	-0.4917832623227383	1.74400490938614	-1.226376499664032	-1.226376499664033	0.4708730208663228	-0.00179543351103587	-0.3437197342329738	-0.08423949201279606	-1.103581531245604e-07	-1.339576760207148e-07	5.654704907230085e-07	-8.542862506775293e-07	2.491758025130915e-08	-2.297926572553247e-07	3.60182021830278e-07
0.51	-0.2398250532318546	-0.01213475644856875	0.8328429804219994	0.9481890051993006	-0.2279279683455067	-0.1290881078433955	-0.3459013696857397	0.7140628977150538	0.7140628977150363	0.03328730131238185	0.1745157305220689	0.1743685225867896	0.03455144810981754	-0.6243064086554425	-0.2195783946076293	-0.4209019989370932	2.00759810961458	-0.0004968101977110706	0.2626523008076701	-0.5711563484475486	1.66031460252076	1.660314602520832	-0.2749210647065693	-2.171153918061159e-05	0.3554285705758964	0.08939894309161284	-0.1700507547639907	-0.02640996161069902	0.01017836220436174	-0.3112617969358236	0.1182819172607823	-0.004635396310966724	0.2002033894308622	-30.51578272350747	-4.29661601843663	1.481934994843868	-4.62783808076248	-2.129520213850193	-671.4587992725035	63.33617770147826	0.3981273708546444	0.5657008681024578	-0.2886025181836082	-1.532711581519771	-0.05436741301428553	-0.4693518139338947	1.772524661041695	-1.373396362380629	-1.373396362376298	0.5508883927375441	0.003971041573106805	-0.3868196688714062	-0.1290642075561753	-8.62259681609702e-08	-5.061377291323136e-08	7.869419991652519e-07	-2.682206706934382e-07	-5.665321768814785e-08	-1.467239233628098e-07	3.534756216357603e-07
0.52	-0.246047480630246	-0.01430206633643077	0.8286204576219599	0.9681858849009866	-0.227935418881246	-0.126484772377568	-0.3515234434461933	0.7305951179430972	0.7305951179430695	0.03056557060434195	0.1745151727115489	0.1779030018658539	0.03543912667174964	-0.6200880716310301	-0.2138629368983927	-0.4235077137639064	1.991500987383686	-0.001003171472168245	0.2580487481522608	-0.5531914626346937	1.645893957173114	1.645893957173215	-0.2693621655244781	-0.0001108480433672174	0.351408214003853	0.08810641594982797	-0.1780758497358682	-0.02512980838885927	0.01082509973966914	-0.3135561607221298	0.115940784715071	-0.0040629078103692	0.2069494884978472	-29.54668377780621	-5.270469780768184	1.474969342819703	-4.529542858388457	-1.744205067915221	-675.936630248405	63.3397727747277	0.4419688576113664	0.5770390004229821	-0.2328805635186263	-1.680629991328195	-0.04013144999899536	-0.4522463874685788	1.824334119295653	-1.508796003558756	-1.508796003558822	0.5468889794950647	-0.02810551422400114	-0.4147180539427464	-0.1205516803410384	-5.38591281183726e-08	7.394941041702324e-08	1.151821511852373e-06	5.963551510891838e-07	-1.850371970944509e-07	-2.372819106700914e-08	3.798031754533276e-07
0.53	-0.2522252339903581	-0.01641163839446538	0.8243747246002333	0.9880139433131617	-0.227947556215015	-0.1239294215318363	-0.3569638356682663	0.7469763062368084	0.7469763062367069	0.02789823158185833	0.1745147580296476	0.1813958271748369	0.03631392609906577	-0.6153785329640722	-0.2080324251187882	-0.4255402942461641	1.973840686032628	-0.001434235901266451	0.2530557724727301	-0.5348356151838707	1.630115739946857	1.630115739946841	-0.2640474979614575	5.246303956044535e-06	0.3471064669008858	0.08682518149028806	-0.1857527368636623	-0.0242173184456859	0.01141074327299771	-0.3163466558570391	0.1142877018422122	-0.003464503157766463	0.213410991326242	-28.57178688403829	-6.025439812032611	1.52034414851103	-4.442745287259235	-1.518122899605756	-680.4775735326261	63.49179728729515	0.498066180830026	0.5888642109956767	-0.1736491651605254	-1.84921859498052	-0.04580211899373833	-0.5176643212411755	1.848915047359941	-1.646521453849789	-1.646521453867285	0.5327308654908544	0.02825623995992127	-0.4455000525882805	-0.135817337856814	-3.140479713591893e-08	1.546558278961427e-07	1.372597001992264e-06	1.150506706546516e-06	-2.671416019442015e-07	5.562616527487168e-08	4.065816669598953e-07
